<?xml version="1.0" standalone="no"?>
<!DOCTYPE svg PUBLIC "-//W3C//DTD SVG 20010904//EN"
 "http://www.w3.org/TR/2001/REC-SVG-20010904/DTD/svg10.dtd">
<svg version="1.0" xmlns="http://www.w3.org/2000/svg"
 width="2000.000000pt" height="1500.000000pt" viewBox="0 0 2000.000000 1500.000000"
 preserveAspectRatio="xMidYMid meet">
<metadata>
Created by potrace 1.16, written by Peter Selinger 2001-2019
</metadata>
<g transform="translate(0.000000,1500.000000) scale(0.100000,-0.100000)"
fill="#000000" stroke="none">
<path d="M0 7500 l0 -7500 10000 0 10000 0 0 7500 0 7500 -10000 0 -10000 0 0
-7500z m14330 4600 l0 -670 -4330 0 -4330 0 0 35 0 35 1498 0 1497 1 -107 103
c-670 648 -1572 1065 -2478 1145 -69 6 -138 13 -155 15 -16 1 1868 4 4188 5
l4217 1 0 -670z m-2 -4272 l-3 -3303 -4225 -1 c-3684 -2 -4206 0 -4080 12 961
93 1796 464 2488 1106 752 696 1216 1646 1312 2683 17 178 14 592 -5 778 -70
699 -308 1363 -691 1926 -35 51 -64 95 -64 97 0 2 1186 4 2635 4 l2635 0 -2
-3302z m-2593 -4023 c210 -37 360 -182 409 -396 34 -147 29 -339 -11 -464 -60
-188 -179 -302 -365 -352 -86 -23 -271 -23 -357 0 -197 53 -328 194 -375 404
-20 92 -21 303 -1 398 18 83 70 194 119 251 120 140 345 201 581 159z m1129 5
c76 -11 256 -68 256 -81 0 -9 -26 -75 -58 -150 l-20 -47 -84 30 c-108 39 -228
49 -282 23 -43 -20 -66 -59 -66 -109 0 -58 43 -95 210 -181 167 -85 237 -140
278 -219 24 -46 27 -62 27 -151 0 -89 -3 -105 -27 -150 -48 -91 -140 -158
-253 -186 -122 -30 -348 -10 -462 41 l-43 19 0 115 c0 64 3 116 8 116 4 0 39
-13 77 -29 101 -41 191 -61 273 -61 123 0 177 37 177 120 0 71 -37 104 -218
197 -226 115 -288 189 -295 350 -6 128 33 218 121 280 98 69 229 95 381 73z
m-5286 -34 c110 -28 173 -72 215 -151 32 -58 32 -212 0 -270 -28 -52 -68 -90
-118 -111 l-40 -16 47 -18 c69 -26 101 -53 134 -112 27 -49 29 -61 29 -153 0
-89 -3 -106 -28 -157 -30 -61 -82 -110 -156 -148 -82 -41 -158 -50 -443 -50
l-268 0 0 606 0 606 283 -5 c215 -3 297 -8 345 -21z m1068 -273 c80 -31 120
-68 156 -141 l33 -67 3 -352 4 -353 -91 0 c-86 0 -92 1 -100 23 -5 12 -16 39
-25 61 l-16 38 -50 -45 c-61 -55 -103 -75 -183 -88 -228 -37 -382 95 -364 313
15 171 135 254 387 264 63 3 130 7 148 10 31 5 32 6 32 55 0 44 -4 55 -32 83
-22 22 -47 35 -75 39 -48 8 -168 -14 -244 -44 l-49 -19 -40 80 c-22 44 -40 82
-40 85 0 12 110 56 172 70 94 22 307 15 374 -12z m1103 11 c60 -17 132 -78
161 -134 34 -68 40 -134 40 -465 l0 -325 -124 0 -124 0 -4 308 c-3 287 -5 310
-24 353 -28 61 -75 84 -153 76 -86 -9 -140 -62 -160 -158 -6 -28 -11 -164 -11
-314 l0 -265 -130 0 -130 0 2 463 3 462 95 0 95 0 15 -45 c28 -81 24 -78 66
-37 67 67 140 95 255 96 41 1 99 -6 128 -15z m998 -18 c45 -15 85 -31 88 -35
4 -7 -62 -181 -69 -181 0 0 -39 14 -86 30 -108 38 -228 42 -260 10 -48 -48 -7
-87 167 -164 205 -90 262 -153 263 -287 0 -140 -65 -228 -201 -271 -126 -39
-389 -26 -481 23 -15 8 -18 24 -18 111 0 91 2 100 18 95 202 -67 329 -83 392
-50 29 15 36 24 38 54 3 32 -2 41 -34 68 -21 17 -83 50 -138 73 -198 85 -260
144 -272 264 -15 141 56 237 206 279 88 24 283 15 387 -19z"/>
<path d="M11471 3583 c-119 -42 -181 -172 -181 -380 0 -169 28 -269 96 -337
90 -90 277 -102 383 -25 99 71 149 259 121 459 -28 206 -121 301 -295 299 -45
0 -99 -7 -124 -16z"/>
<path d="M7210 3455 l0 -137 123 4 c133 4 166 14 201 61 28 38 28 117 0 148
-38 42 -74 52 -201 57 l-123 5 0 -138z"/>
<path d="M7210 2960 l0 -162 128 4 c189 6 242 40 242 156 0 117 -52 151 -246
160 l-124 5 0 -163z"/>
<path d="M8445 3010 c-133 -16 -190 -74 -171 -176 19 -97 208 -99 277 -3 19
27 25 49 28 112 l3 77 -38 -1 c-22 -1 -66 -5 -99 -9z"/>
</g>
</svg>
