<?xml version="1.0" standalone="no"?>
<!DOCTYPE svg PUBLIC "-//W3C//DTD SVG 20010904//EN"
 "http://www.w3.org/TR/2001/REC-SVG-20010904/DTD/svg10.dtd">
<svg version="1.0" xmlns="http://www.w3.org/2000/svg"
 width="1920.000000pt" height="1080.000000pt" viewBox="0 0 1920.000000 1080.000000"
 preserveAspectRatio="xMidYMid meet">
<metadata>
Created by potrace 1.16, written by Peter Selinger 2001-2019
</metadata>
<g transform="translate(0.000000,1080.000000) scale(0.100000,-0.100000)"
fill="#000000" stroke="none">
<path d="M9465 7070 c-869 -3 -1587 -8 -1595 -11 -8 -2 -21 -8 -27 -12 -7 -5
-14 -5 -15 0 -1 4 -5 -98 -10 -227 -4 -129 -8 -244 -9 -255 0 -11 2 -353 6
-760 3 -407 7 -1033 8 -1392 1 -358 4 -653 7 -655 42 -28 69 -28 1784 -28
l1735 0 30 37 c18 22 31 31 32 23 0 -10 3 -8 9 5 5 11 8 58 8 105 0 47 -2 77
-5 68 -6 -25 -20 -22 -27 5 -8 30 -8 797 1 921 4 71 9 93 15 77 4 -12 5 -33 2
-45 -3 -12 -1 -33 5 -46 6 -17 10 334 10 1058 1 608 -3 1081 -8 1078 -4 -3
-17 4 -27 15 -10 12 -26 25 -35 30 -28 15 -255 16 -1894 9z m1833 -309 c2
-197 -1 -256 -10 -263 -15 -9 -3331 -11 -3365 -2 -13 4 -23 10 -23 15 0 5 255
9 588 9 l587 1 -76 72 c-218 208 -537 360 -866 411 -76 12 129 14 1537 12
l1625 -1 3 -254z m0 -1683 l-3 -1293 -1630 -1 -1630 -2 110 19 c133 23 267 59
354 95 454 184 800 549 950 999 50 152 69 244 82 405 27 343 -63 708 -247 993
-24 37 -44 70 -44 72 0 3 464 5 1030 5 l1030 0 -2 -1292z"/>
</g>
</svg>
