<?xml version="1.0" standalone="no"?>
<!DOCTYPE svg PUBLIC "-//W3C//DTD SVG 20010904//EN"
 "http://www.w3.org/TR/2001/REC-SVG-20010904/DTD/svg10.dtd">
<svg version="1.0" xmlns="http://www.w3.org/2000/svg"
 width="2000.000000pt" height="1600.000000pt" viewBox="0 0 2000.000000 1600.000000"
 preserveAspectRatio="xMidYMid meet">
<metadata>
Created by potrace 1.16, written by Peter Selinger 2001-2019
</metadata>
<g transform="translate(0.000000,1600.000000) scale(0.100000,-0.100000)"
fill="#000000" stroke="none">
<path d="M8222 9783 c-47 -4 -55 -8 -75 -38 -12 -19 -27 -35 -34 -35 -7 0 -14
-25 -17 -62 -4 -35 -5 -802 -4 -1705 l3 -1643 23 -15 c12 -9 22 -22 22 -30 0
-8 10 -19 22 -26 27 -14 3691 -15 3696 0 2 5 14 21 28 36 l24 26 -2 1702 -3
1702 -42 43 -42 42 -1493 0 c-821 1 -1619 2 -1773 4 -154 2 -304 1 -333 -1z
m3559 -83 c18 -10 19 -24 19 -275 l0 -265 -1800 0 c-1593 0 -1800 2 -1800 15
0 13 76 15 623 15 l622 1 -55 50 c-90 83 -243 194 -347 252 -171 95 -414 179
-601 206 -32 5 686 9 1631 10 1147 1 1695 -2 1708 -9z m17 -2037 l-3 -1368
-1700 -2 -1700 -2 135 28 c170 36 296 78 428 142 490 241 834 687 943 1225 31
152 37 417 15 575 -37 251 -126 495 -255 692 l-51 77 1095 0 1095 0 -2 -1367z"/>
</g>
</svg>
