<?xml version="1.0" standalone="no"?>
<!DOCTYPE svg PUBLIC "-//W3C//DTD SVG 20010904//EN"
 "http://www.w3.org/TR/2001/REC-SVG-20010904/DTD/svg10.dtd">
<svg version="1.0" xmlns="http://www.w3.org/2000/svg"
 width="2000.000000pt" height="1250.000000pt" viewBox="0 0 2000.000000 1250.000000"
 preserveAspectRatio="xMidYMid meet">
<metadata>
Created by potrace 1.16, written by Peter Selinger 2001-2019
</metadata>
<g transform="translate(0.000000,1250.000000) scale(0.100000,-0.100000)"
fill="#000000" stroke="none">
<path d="M7260 8970 c-99 -5 -120 -11 -120 -36 0 -8 -6 -14 -14 -14 -8 0 -18
-6 -22 -12 -10 -15 -18 -810 -9 -855 3 -18 12 -33 19 -33 8 0 19 -13 26 -30
10 -24 10 -36 0 -60 -7 -16 -19 -30 -26 -30 -9 0 -14 -11 -14 -27 0 -16 -2
-984 -5 -2151 -5 -1985 -4 -2126 12 -2153 18 -31 31 -35 141 -44 39 -4 72 -11
72 -16 0 -5 105 -8 243 -8 133 1 229 5 212 9 -18 5 29 8 120 9 100 0 145 -3
135 -9 -10 -6 820 -10 2352 -10 1641 0 2367 3 2370 10 2 6 28 14 59 17 88 9
94 17 94 131 0 390 -10 1061 -14 992 l-6 -85 -10 50 c-13 66 -14 2851 0 2920
l9 50 7 -45 c3 -26 7 31 7 131 2 144 -1 178 -12 182 -19 8 -32 142 -17 180 6
16 15 25 21 22 7 -4 10 136 10 415 l0 422 -25 20 c-14 11 -25 28 -25 39 0 17
-8 19 -77 19 -43 0 -1279 1 -2748 2 -1468 2 -2713 1 -2765 -2z m5534 -58 c15
-17 16 -58 14 -433 l-3 -414 -2808 -3 -2808 -2 3 22 3 23 964 5 964 5 -91 87
c-50 47 -144 126 -209 175 -418 315 -877 489 -1433 546 -19 2 1185 5 2676 5
2621 2 2711 1 2728 -16z m14 -3186 c1 -1565 -1 -2132 -9 -2142 -10 -12 -454
-14 -2733 -13 -2365 1 -2706 3 -2606 15 467 56 863 198 1227 441 669 446 1097
1147 1194 1958 16 132 16 474 0 600 -56 448 -215 879 -447 1213 l-43 62 1707
-2 1707 -3 3 -2129z"/>
</g>
</svg>
