<?xml version="1.0" standalone="no"?>
<!DOCTYPE svg PUBLIC "-//W3C//DTD SVG 20010904//EN"
 "http://www.w3.org/TR/2001/REC-SVG-20010904/DTD/svg10.dtd">
<svg version="1.0" xmlns="http://www.w3.org/2000/svg"
 width="2000.000000pt" height="1500.000000pt" viewBox="0 0 2000.000000 1500.000000"
 preserveAspectRatio="xMidYMid meet">

<g transform="translate(0.000000,1500.000000) scale(0.100000,-0.100000)"
fill="#000000" stroke="none">
<path d="M7843 9552 c-13 -2 -23 -6 -23 -10 0 -4 -12 -13 -27 -19 -53 -24 -55
-33 -58 -342 -2 -177 1 -313 7 -357 9 -57 8 -87 -3 -150 -13 -66 -14 -144 -8
-474 4 -217 8 -954 8 -1638 l1 -1243 21 -31 22 -31 131 6 c144 7 195 14 368
57 765 190 1378 803 1568 1569 47 186 62 316 63 521 1 330 -55 602 -184 892
-48 107 -180 341 -200 354 -5 3 -9 9 -9 15 0 5 519 9 1365 9 l1365 0 0 -1702
c0 -936 3 -1699 6 -1696 3 4 6 665 6 1470 0 804 3 1540 7 1633 4 98 2 202 -3
245 -12 90 -12 110 3 506 11 271 10 316 -3 345 -13 31 -14 3 -15 -303 l-1
-338 -2250 0 c-2243 0 -2250 0 -2250 20 0 20 7 20 778 20 l777 1 -80 76 c-225
212 -498 373 -805 473 -126 42 -225 64 -400 90 -112 17 -50 18 2039 19 1185 1
2152 3 2149 6 -6 6 -4327 12 -4365 7z"/>
<path d="M8353 5243 c268 -2 706 -2 975 0 268 1 48 2 -488 2 -536 0 -756 -1
-487 -2z"/>
<path d="M11778 5243 c79 -2 205 -2 280 0 75 1 11 3 -143 3 -154 0 -216 -2
-137 -3z"/>
</g>
</svg>
