<?xml version="1.0" standalone="no"?>
<!DOCTYPE svg PUBLIC "-//W3C//DTD SVG 20010904//EN"
 "http://www.w3.org/TR/2001/REC-SVG-20010904/DTD/svg10.dtd">
<svg version="1.0" xmlns="http://www.w3.org/2000/svg"
 width="2000.000000pt" height="1500.000000pt" viewBox="0 0 2000.000000 1500.000000"
 preserveAspectRatio="xMidYMid meet">
<metadata>
Created by potrace 1.16, written by Peter Selinger 2001-2019
</metadata>
<g transform="translate(0.000000,1500.000000) scale(0.100000,-0.100000)"
fill="#000000" stroke="none">
<path d="M0 7500 l0 -7500 10000 0 10000 0 0 7500 0 7500 -10000 0 -10000 0 0
-7500z m12160 2300 l0 -330 -2160 0 c-1913 0 -2160 2 -2160 15 0 13 89 15 745
15 l746 0 -67 62 c-334 313 -777 514 -1229 557 -53 5 770 9 2018 10 l2107 1 0
-330z m0 -2140 l0 -1650 -2132 1 c-1305 1 -2089 5 -2019 11 389 29 813 195
1116 436 431 343 710 831 780 1365 17 135 20 383 5 507 -38 315 -143 610 -309
875 -33 53 -61 99 -61 101 0 2 590 4 1310 4 l1310 0 0 -1650z m-1206 -2044
c91 -53 132 -155 124 -306 -6 -105 -39 -176 -105 -226 -74 -56 -211 -69 -312
-28 -57 23 -118 94 -137 162 -25 85 -16 232 19 299 51 99 124 135 267 130 84
-2 102 -6 144 -31z m544 19 c28 -9 54 -19 57 -24 3 -5 -4 -30 -14 -55 l-20
-45 -43 15 c-53 19 -132 22 -151 5 -44 -36 -23 -83 55 -122 90 -45 146 -86
162 -117 53 -106 3 -215 -113 -249 -64 -18 -167 -13 -225 11 -36 15 -36 16
-36 74 l0 60 65 -24 c83 -30 157 -32 185 -4 43 43 21 79 -78 129 -129 65 -167
115 -160 208 6 66 29 100 88 131 54 27 150 30 228 7z m-2663 -21 c92 -47 101
-195 14 -240 l-33 -16 31 -13 c16 -7 40 -26 52 -41 20 -25 22 -38 19 -94 -4
-75 -22 -107 -83 -142 -36 -21 -54 -23 -197 -26 l-158 -4 0 302 0 301 158 -3
c135 -3 163 -6 197 -24z m512 -130 c65 -49 68 -59 71 -260 l3 -184 -46 0 c-42
0 -47 3 -57 30 l-10 30 -29 -24 c-81 -69 -215 -56 -256 25 -7 13 -13 49 -13
80 0 97 48 130 208 145 62 6 72 10 72 26 0 60 -49 78 -140 52 -33 -9 -63 -15
-65 -12 -2 2 -11 20 -20 40 -11 27 -12 39 -3 44 62 39 237 43 285 8z m552 6
c65 -33 75 -67 79 -272 l4 -178 -65 0 -66 0 -3 166 c-3 160 -4 166 -27 185
-32 26 -74 24 -108 -5 l-28 -24 -3 -161 -3 -161 -65 0 -64 0 0 230 0 230 49 0
c47 0 50 -1 56 -31 l7 -31 26 26 c15 13 38 29 52 35 42 17 118 13 159 -9z
m448 10 c74 -16 77 -20 57 -68 -9 -23 -20 -42 -25 -42 -5 0 -35 7 -67 16 -44
12 -64 13 -85 5 -47 -18 -30 -42 68 -91 103 -52 130 -82 130 -145 0 -80 -63
-134 -168 -142 -34 -3 -88 0 -120 7 l-57 11 0 56 c0 49 2 54 18 48 9 -5 44
-14 77 -21 70 -16 125 -4 125 25 0 25 -25 44 -102 79 -93 42 -118 71 -118 136
0 32 6 61 16 75 37 53 142 74 251 51z"/>
<path d="M10746 5540 c-72 -23 -113 -113 -103 -227 12 -124 68 -180 170 -170
68 6 110 50 127 133 14 67 2 169 -25 210 -32 49 -108 73 -169 54z"/>
<path d="M8608 5534 c-5 -4 -8 -34 -8 -66 l0 -58 68 0 c75 0 98 11 107 51 11
46 -22 72 -96 77 -35 2 -67 0 -71 -4z"/>
<path d="M8600 5225 l0 -75 70 0 c62 0 74 3 95 25 34 33 33 77 -1 104 -21 17
-41 21 -95 21 l-69 0 0 -75z"/>
<path d="M9172 5238 c-42 -21 -44 -98 -2 -108 61 -16 120 27 120 86 0 34 0 34
-47 33 -27 0 -58 -5 -71 -11z"/>
</g>
</svg>
